<?xml version="1.0" encoding="UTF-8"?>
<!DOCTYPE svg PUBLIC "-//W3C//DTD SVG 1.1//EN" "http://www.w3.org/Graphics/SVG/1.1/DTD/svg11.dtd">
<svg xmlns="http://www.w3.org/2000/svg" version="1.1" width="161px" height="161px" style="shape-rendering:geometricPrecision; text-rendering:geometricPrecision; image-rendering:optimizeQuality; fill-rule:evenodd; clip-rule:evenodd" xmlns:xlink="http://www.w3.org/1999/xlink">
<g><path style="opacity:1" fill="#fafafa" d="M -0.5,-0.5 C 53.1667,-0.5 106.833,-0.5 160.5,-0.5C 160.5,23.5 160.5,47.5 160.5,71.5C 160.167,71.5 159.833,71.5 159.5,71.5C 153.145,36.3074 132.812,13.4741 98.5,3C 60.1889,-3.59475 30.6889,9.57191 10,42.5C 4.80529,51.8816 1.63862,61.8816 0.5,72.5C 0.166667,72.5 -0.166667,72.5 -0.5,72.5C -0.5,48.1667 -0.5,23.8333 -0.5,-0.5 Z"/></g>
<g><path style="opacity:1" fill="#4a3d40" d="M 159.5,71.5 C 160.078,106.526 145.078,132.359 114.5,149C 71.2599,165.92 36.7599,155.086 11,116.5C 3.33293,102.833 -0.167067,88.1663 0.5,72.5C 1.63862,61.8816 4.80529,51.8816 10,42.5C 30.6889,9.57191 60.1889,-3.59475 98.5,3C 132.812,13.4741 153.145,36.3074 159.5,71.5 Z"/></g>
<g><path style="opacity:1" fill="#f3f2f1" d="M 89.5,4.5 C 85.7679,12.2973 81.7679,19.964 77.5,27.5C 73.9303,20.0183 70.597,12.3517 67.5,4.5C 74.9751,3.25699 82.3085,3.25699 89.5,4.5 Z"/></g>
<g><path style="opacity:1" fill="#18759f" d="M 89.5,4.5 C 91.5,4.83333 93.5,5.16667 95.5,5.5C 98.3707,7.43454 101.371,9.10121 104.5,10.5C 103.234,12.2962 103.568,12.6295 105.5,11.5C 106.499,14.1741 108.166,14.8408 110.5,13.5C 110.833,14.1667 111.167,14.8333 111.5,15.5C 110.137,17.7075 108.97,20.0408 108,22.5C 107.023,23.7736 106.189,23.7736 105.5,22.5C 106.038,20.8828 106.371,19.2161 106.5,17.5C 105.167,17.5 103.833,17.5 102.5,17.5C 101.713,15.8958 100.38,15.2291 98.5,15.5C 97.0536,14.3871 95.3869,14.2204 93.5,15C 92.6634,16.0113 92.33,17.1779 92.5,18.5C 91.5028,18.4701 90.8361,18.9701 90.5,20C 90.026,22.7492 89.026,25.2492 87.5,27.5C 87.9569,28.2975 88.6236,28.6309 89.5,28.5C 85.3068,28.6826 83.9734,30.6826 85.5,34.5C 85.6495,35.552 85.4828,36.552 85,37.5C 83.6439,36.6198 82.1439,36.2865 80.5,36.5C 80.1006,39.9708 78.6006,40.3042 76,37.5C 75.2086,36.255 74.7086,34.9217 74.5,33.5C 76.0248,31.7837 77.0248,29.7837 77.5,27.5C 81.7679,19.964 85.7679,12.2973 89.5,4.5 Z"/></g>
<g><path style="opacity:1" fill="#ebecec" d="M 40.5,15.5 C 43.7188,22.3282 46.2188,29.3282 48,36.5C 42.6988,32.2002 37.6988,27.5336 33,22.5C 32.5357,21.9056 32.369,21.2389 32.5,20.5C 35.1667,18.8333 37.8333,17.1667 40.5,15.5 Z"/></g>
<g><path style="opacity:1" fill="#bfbdb9" d="M 95.5,5.5 C 104.902,7.53756 113.569,11.2042 121.5,16.5C 122.425,17.3569 123.092,18.3569 123.5,19.5C 121.952,19.8212 121.285,20.8212 121.5,22.5C 120.5,23.1667 119.5,23.8333 118.5,24.5C 118.703,22.9557 119.37,21.6223 120.5,20.5C 119.635,19.4173 118.635,19.2506 117.5,20C 115.002,24.9015 112.002,29.4015 108.5,33.5C 108.34,31.8008 108.506,30.1341 109,28.5C 111.253,24.497 113.086,20.3304 114.5,16C 112.27,12.3806 108.937,10.5473 104.5,10.5C 101.371,9.10121 98.3707,7.43454 95.5,5.5 Z"/></g>
<g><path style="opacity:1" fill="#dfb86d" d="M 98.5,15.5 C 97.791,16.404 96.791,16.7373 95.5,16.5C 95.0607,20.7152 96.7274,23.7152 100.5,25.5C 99.1667,25.5 97.8333,25.5 96.5,25.5C 94.8845,23.262 93.5512,20.9287 92.5,18.5C 92.33,17.1779 92.6634,16.0113 93.5,15C 95.3869,14.2204 97.0536,14.3871 98.5,15.5 Z"/></g>
<g><path style="opacity:1" fill="#a19689" d="M 98.5,15.5 C 100.38,15.2291 101.713,15.8958 102.5,17.5C 103.833,17.5 105.167,17.5 106.5,17.5C 106.371,19.2161 106.038,20.8828 105.5,22.5C 104.341,24.2503 102.674,25.2503 100.5,25.5C 96.7274,23.7152 95.0607,20.7152 95.5,16.5C 96.791,16.7373 97.791,16.404 98.5,15.5 Z"/></g>
<g><path style="opacity:1" fill="#e4c15c" d="M 102.5,17.5 C 103.038,19.1172 103.371,20.7839 103.5,22.5C 102.5,22.5 101.5,22.5 100.5,22.5C 100.643,20.7376 100.309,19.0709 99.5,17.5C 100.233,16.913 101.233,16.913 102.5,17.5 Z"/></g>
<g><path style="opacity:1" fill="#413f3d" d="M 67.5,4.5 C 70.597,12.3517 73.9303,20.0183 77.5,27.5C 77.0248,29.7837 76.0248,31.7837 74.5,33.5C 73.3256,37.2601 74.8256,39.9267 79,41.5C 82.5177,41.0043 85.351,42.3376 87.5,45.5C 84.7291,44.3666 81.8958,43.3666 79,42.5C 74.8669,43.6381 70.7002,44.6381 66.5,45.5C 65.3698,46.6223 64.7031,47.9557 64.5,49.5C 61.7884,49.2625 59.2884,49.2625 57,49.5C 56,51.8333 55,54.1667 54,56.5C 53.6893,62.8737 53.0226,69.207 52,75.5C 51.6174,76.056 51.1174,76.3893 50.5,76.5C 51.5952,71.5356 52.0952,66.5356 52,61.5C 47.2598,67.9904 45.0931,75.3237 45.5,83.5C 45.1667,83.5 44.8333,83.5 44.5,83.5C 44.6662,77.4908 44.4995,71.4908 44,65.5C 43,66.5 42,67.5 41,68.5C 40.6012,68.2716 40.4346,67.9382 40.5,67.5C 37.8257,65.432 34.8257,64.0986 31.5,63.5C 32.7383,63.19 32.7383,62.69 31.5,62C 24.9575,56.6182 18.2909,51.4515 11.5,46.5C 16.292,36.0422 23.292,27.3755 32.5,20.5C 32.369,21.2389 32.5357,21.9056 33,22.5C 37.6988,27.5336 42.6988,32.2002 48,36.5C 46.2188,29.3282 43.7188,22.3282 40.5,15.5C 48.734,9.88071 57.734,6.21405 67.5,4.5 Z"/></g>
<g><path style="opacity:1" fill="#8cd0e0" d="M 64.5,22.5 C 67.6853,22.7224 68.6853,24.2224 67.5,27C 66.5509,27.6172 65.7175,27.4506 65,26.5C 64.51,25.2068 64.3433,23.8734 64.5,22.5 Z"/></g>
<g><path style="opacity:1" fill="#ceb558" d="M 54.5,26.5 C 56.8337,28.1757 57.8337,30.509 57.5,33.5C 56.5,33.5 55.5,33.5 54.5,33.5C 54.5,31.1667 54.5,28.8333 54.5,26.5 Z"/></g>
<g><path style="opacity:1" fill="#cfaf71" d="M 89.5,28.5 C 91.5529,28.4021 93.2196,29.0687 94.5,30.5C 92.4821,31.0472 90.6487,32.0472 89,33.5C 88.6667,33.1667 88.3333,32.8333 88,32.5C 87.5172,33.448 87.3505,34.448 87.5,35.5C 89.9892,35.2978 92.3225,35.7978 94.5,37C 93.5842,37.2784 92.9175,37.7784 92.5,38.5C 89.1626,38.8132 86.8293,37.4799 85.5,34.5C 83.9734,30.6826 85.3068,28.6826 89.5,28.5 Z"/></g>
<g><path style="opacity:1" fill="#b1a18a" d="M 94.5,30.5 C 95.4916,30.3284 96.1583,30.6618 96.5,31.5C 95.234,32.0899 93.9007,32.5899 92.5,33C 94.3807,34.7615 96.3807,36.2615 98.5,37.5C 96.7354,38.4614 94.7354,38.7947 92.5,38.5C 92.9175,37.7784 93.5842,37.2784 94.5,37C 92.3225,35.7978 89.9892,35.2978 87.5,35.5C 87.3505,34.448 87.5172,33.448 88,32.5C 88.3333,32.8333 88.6667,33.1667 89,33.5C 90.6487,32.0472 92.4821,31.0472 94.5,30.5 Z"/></g>
<g><path style="opacity:1" fill="#d3b774" d="M 96.5,31.5 C 97.1667,33.5 97.8333,35.5 98.5,37.5C 96.3807,36.2615 94.3807,34.7615 92.5,33C 93.9007,32.5899 95.234,32.0899 96.5,31.5 Z"/></g>
<g><path style="opacity:1" fill="#2a607e" d="M 104.5,10.5 C 108.937,10.5473 112.27,12.3806 114.5,16C 113.086,20.3304 111.253,24.497 109,28.5C 108.506,30.1341 108.34,31.8008 108.5,33.5C 105.154,38.8662 101.821,44.1995 98.5,49.5C 97.5041,49.4142 96.6708,49.7476 96,50.5C 93.3582,48.432 90.5248,46.7653 87.5,45.5C 85.351,42.3376 82.5177,41.0043 79,41.5C 74.8256,39.9267 73.3256,37.2601 74.5,33.5C 74.7086,34.9217 75.2086,36.255 76,37.5C 78.6006,40.3042 80.1006,39.9708 80.5,36.5C 82.1439,36.2865 83.6439,36.6198 85,37.5C 85.4828,36.552 85.6495,35.552 85.5,34.5C 86.8293,37.4799 89.1626,38.8132 92.5,38.5C 94.7354,38.7947 96.7354,38.4614 98.5,37.5C 97.8333,35.5 97.1667,33.5 96.5,31.5C 96.1583,30.6618 95.4916,30.3284 94.5,30.5C 93.2196,29.0687 91.5529,28.4021 89.5,28.5C 88.6236,28.6309 87.9569,28.2975 87.5,27.5C 89.026,25.2492 90.026,22.7492 90.5,20C 90.8361,18.9701 91.5028,18.4701 92.5,18.5C 93.5512,20.9287 94.8845,23.262 96.5,25.5C 97.8333,25.5 99.1667,25.5 100.5,25.5C 102.674,25.2503 104.341,24.2503 105.5,22.5C 106.189,23.7736 107.023,23.7736 108,22.5C 108.97,20.0408 110.137,17.7075 111.5,15.5C 111.167,14.8333 110.833,14.1667 110.5,13.5C 108.166,14.8408 106.499,14.1741 105.5,11.5C 103.568,12.6295 103.234,12.2962 104.5,10.5 Z"/></g>
<g><path style="opacity:1" fill="#ceb927" d="M 96.5,25.5 C 96.4347,28.9983 95.1014,29.4983 92.5,27C 93.5634,25.8118 94.8967,25.3118 96.5,25.5 Z"/></g>
<g><path style="opacity:1" fill="#c5b148" d="M 32.5,41.5 C 31.5,41.5 30.5,41.5 29.5,41.5C 30.4376,36.2332 31.4376,36.2332 32.5,41.5 Z"/></g>
<g><path style="opacity:1" fill="#a13529" d="M 38.5,38.5 C 39.8734,38.3433 41.2068,38.51 42.5,39C 43.6745,41.8288 42.6745,42.8288 39.5,42C 38.6634,40.9887 38.33,39.8221 38.5,38.5 Z"/></g>
<g><path style="opacity:1" fill="#bab8b1" d="M 44.5,42.5 C 45.2485,44.3325 46.2485,45.9991 47.5,47.5C 44.1789,46.9019 43.1789,45.2353 44.5,42.5 Z"/></g>
<g><path style="opacity:1" fill="#a68f2e" d="M 47.5,47.5 C 46.2485,45.9991 45.2485,44.3325 44.5,42.5C 45.3285,41.6676 46.1618,42.001 47,43.5C 47.7065,45.0806 48.5399,46.5806 49.5,48C 48.5632,48.6917 47.8966,48.525 47.5,47.5 Z"/></g>
<g><path style="opacity:1" fill="#a93835" d="M 140.5,35.5 C 143.608,38.3283 146.275,41.6617 148.5,45.5C 147.051,46.1719 145.718,46.8386 144.5,47.5C 142.5,48.8333 140.833,50.5 139.5,52.5C 137.609,51.4639 135.776,51.4639 134,52.5C 134.207,50.2487 134.373,47.9154 134.5,45.5C 136.075,41.9219 138.075,38.5886 140.5,35.5 Z"/></g>
<g><path style="opacity:1" fill="#747168" d="M 29.5,41.5 C 30.5,41.5 31.5,41.5 32.5,41.5C 32.0472,42.4584 31.3805,43.2917 30.5,44C 32.747,45.995 33.747,48.495 33.5,51.5C 30.7081,51.5479 28.8747,50.2146 28,47.5C 27.0589,45.0106 27.5589,43.0106 29.5,41.5 Z"/></g>
<g><path style="opacity:1" fill="#b32f27" d="M 38.5,43.5 C 41.8495,45.7807 43.1828,48.7807 42.5,52.5C 39.3151,50.3173 37.9818,47.3173 38.5,43.5 Z"/></g>
<g><path style="opacity:1" fill="#e9e9e9" d="M 11.5,46.5 C 18.2909,51.4515 24.9575,56.6182 31.5,62C 32.7383,62.69 32.7383,63.19 31.5,63.5C 23.5007,61.1669 15.5007,58.8336 7.5,56.5C 8.28239,52.9368 9.61572,49.6035 11.5,46.5 Z"/></g>
<g><path style="opacity:1" fill="#974b25" d="M 35.5,48.5 C 37.5638,48.7619 38.8971,49.9286 39.5,52C 37.8629,53.951 36.3629,53.7843 35,51.5C 34.5304,50.4232 34.6971,49.4232 35.5,48.5 Z"/></g>
<g><path style="opacity:1" fill="#614e72" d="M 64.5,49.5 C 69.9196,51.4401 75.5863,52.9401 81.5,54C 83.0664,54.6082 84.3998,55.4415 85.5,56.5C 80.4379,57.9651 75.4379,59.6318 70.5,61.5C 66.6521,61.2397 62.9855,61.9064 59.5,63.5C 60.1272,64.4168 60.4606,65.4168 60.5,66.5C 59.1667,67.1667 58.1667,68.1667 57.5,69.5C 58.88,74.5939 60.5467,79.5939 62.5,84.5C 62.189,85.4778 61.5223,86.1445 60.5,86.5C 59.1482,85.4756 57.8149,84.4756 56.5,83.5C 54.8583,81.9192 52.8583,81.2525 50.5,81.5C 50.5,80.5 50.5,79.5 50.5,78.5C 50.5,77.8333 50.5,77.1667 50.5,76.5C 51.1174,76.3893 51.6174,76.056 52,75.5C 53.0226,69.207 53.6893,62.8737 54,56.5C 55,54.1667 56,51.8333 57,49.5C 59.2884,49.2625 61.7884,49.2625 64.5,49.5 Z"/></g>
<g><path style="opacity:1" fill="#494330" d="M 87.5,45.5 C 90.5248,46.7653 93.3582,48.432 96,50.5C 96.6708,49.7476 97.5041,49.4142 98.5,49.5C 99.1667,50.5 99.8333,51.5 100.5,52.5C 99.5,52.5 98.5,52.5 97.5,52.5C 97.5,55.1667 97.5,57.8333 97.5,60.5C 95.064,61.871 92.3973,62.871 89.5,63.5C 89.5,62.8333 89.1667,62.5 88.5,62.5C 88.0075,60.1815 87.0075,58.1815 85.5,56.5C 84.3998,55.4415 83.0664,54.6082 81.5,54C 75.5863,52.9401 69.9196,51.4401 64.5,49.5C 64.7031,47.9557 65.3698,46.6223 66.5,45.5C 70.7002,44.6381 74.8669,43.6381 79,42.5C 81.8958,43.3666 84.7291,44.3666 87.5,45.5 Z"/></g>
<g><path style="opacity:1" fill="#c8af4a" d="M 147.5,47.5 C 149.614,48.784 150.614,50.784 150.5,53.5C 146.765,56.4971 144.431,55.4971 143.5,50.5C 144.901,49.4793 146.235,48.4793 147.5,47.5 Z"/></g>
<g><path style="opacity:1" fill="#d7d6d3" d="M 118.5,24.5 C 114.39,31.2122 110.39,38.0456 106.5,45C 107.331,47.8247 109.165,49.658 112,50.5C 112.915,49.6721 113.581,48.6721 114,47.5C 114.187,49.8911 115.02,51.0577 116.5,51C 116.18,52.6532 115.18,53.6532 113.5,54C 115.791,56.3397 118.458,57.6731 121.5,58C 126.88,49.4101 131.88,40.5767 136.5,31.5C 136.192,30.6919 135.692,30.0253 135,29.5C 133.612,30.5536 132.112,30.7203 130.5,30C 127.995,28.2467 125.329,26.7467 122.5,25.5C 121.614,24.675 121.281,23.675 121.5,22.5C 121.285,20.8212 121.952,19.8212 123.5,19.5C 131.13,22.7985 136.797,28.1318 140.5,35.5C 138.075,38.5886 136.075,41.9219 134.5,45.5C 130.848,51.4641 127.181,57.4641 123.5,63.5C 121.801,63.6602 120.134,63.4935 118.5,63C 112.609,59.2244 106.609,55.7244 100.5,52.5C 99.8333,51.5 99.1667,50.5 98.5,49.5C 101.821,44.1995 105.154,38.8662 108.5,33.5C 112.002,29.4015 115.002,24.9015 117.5,20C 118.635,19.2506 119.635,19.4173 120.5,20.5C 119.37,21.6223 118.703,22.9557 118.5,24.5 Z"/></g>
<g><path style="opacity:1" fill="#eeedea" d="M 121.5,22.5 C 121.281,23.675 121.614,24.675 122.5,25.5C 125.329,26.7467 127.995,28.2467 130.5,30C 132.112,30.7203 133.612,30.5536 135,29.5C 135.692,30.0253 136.192,30.6919 136.5,31.5C 131.88,40.5767 126.88,49.4101 121.5,58C 118.458,57.6731 115.791,56.3397 113.5,54C 115.18,53.6532 116.18,52.6532 116.5,51C 115.02,51.0577 114.187,49.8911 114,47.5C 113.581,48.6721 112.915,49.6721 112,50.5C 109.165,49.658 107.331,47.8247 106.5,45C 110.39,38.0456 114.39,31.2122 118.5,24.5C 119.5,23.8333 120.5,23.1667 121.5,22.5 Z"/></g>
<g><path style="opacity:1" fill="#a1a0a5" d="M 123.5,34.5 C 124.309,35.4687 125.309,36.3021 126.5,37C 125.427,38.2504 125.427,39.5838 126.5,41C 126.265,41.8732 125.931,42.7065 125.5,43.5C 117.481,49.1144 113.481,47.1144 113.5,37.5C 114.5,37.5 115.5,37.5 116.5,37.5C 116.5,37.8333 116.5,38.1667 116.5,38.5C 116.152,40.2399 116.152,41.9065 116.5,43.5C 117.808,44.6256 119.142,44.6256 120.5,43.5C 124.091,41.3944 125.091,38.3944 123.5,34.5 Z"/></g>
<g><path style="opacity:1" fill="#c4b88b" d="M 116.5,38.5 C 118.193,39.8533 119.526,41.52 120.5,43.5C 119.142,44.6256 117.808,44.6256 116.5,43.5C 116.152,41.9065 116.152,40.2399 116.5,38.5 Z"/></g>
<g><path style="opacity:1" fill="#c9af2b" d="M 123.5,34.5 C 125.091,38.3944 124.091,41.3944 120.5,43.5C 119.526,41.52 118.193,39.8533 116.5,38.5C 116.5,38.1667 116.5,37.8333 116.5,37.5C 118.954,36.7729 121.287,35.7729 123.5,34.5 Z"/></g>
<g><path style="opacity:1" fill="#8f9086" d="M 60.5,55.5 C 66.1535,56.0545 71.8202,56.5545 77.5,57C 74.9639,57.9838 72.4639,59.1505 70,60.5C 66.3536,58.239 62.5202,57.4057 58.5,58C 59.3805,57.2917 60.0472,56.4584 60.5,55.5 Z"/></g>
<g><path style="opacity:1" fill="#edcd76" d="M 142.5,62.5 C 141.094,62.0269 140.427,61.0269 140.5,59.5C 142.4,55.5338 143.067,55.5338 142.5,59.5C 145.125,60.5343 145.125,61.5343 142.5,62.5 Z"/></g>
<g><path style="opacity:1" fill="#8d322e" d="M 134.5,45.5 C 134.373,47.9154 134.207,50.2487 134,52.5C 135.776,51.4639 137.609,51.4639 139.5,52.5C 140.203,54.9464 140.537,57.2797 140.5,59.5C 140.427,61.0269 141.094,62.0269 142.5,62.5C 143.251,63.5735 144.251,63.7401 145.5,63C 147.717,61.2765 150.05,59.7765 152.5,58.5C 154.195,60.7324 155.362,63.3991 156,66.5C 156.499,72.4908 156.666,78.4908 156.5,84.5C 156.167,84.5 155.833,84.5 155.5,84.5C 154.166,79.3316 152.332,74.3316 150,69.5C 148.989,68.6634 147.822,68.33 146.5,68.5C 142.685,68.9827 138.685,68.9827 134.5,68.5C 134.44,67.9569 134.107,67.6236 133.5,67.5C 131.809,69.2562 129.809,69.7562 127.5,69C 126.035,67.2258 124.702,65.3925 123.5,63.5C 127.181,57.4641 130.848,51.4641 134.5,45.5 Z"/></g>
<g><path style="opacity:1" fill="#c6bdad" d="M 144.5,47.5 C 145.5,47.5 146.5,47.5 147.5,47.5C 146.235,48.4793 144.901,49.4793 143.5,50.5C 144.431,55.4971 146.765,56.4971 150.5,53.5C 152.213,54.6354 152.88,56.302 152.5,58.5C 150.05,59.7765 147.717,61.2765 145.5,63C 144.251,63.7401 143.251,63.5735 142.5,62.5C 145.125,61.5343 145.125,60.5343 142.5,59.5C 143.067,55.5338 142.4,55.5338 140.5,59.5C 140.537,57.2797 140.203,54.9464 139.5,52.5C 140.833,50.5 142.5,48.8333 144.5,47.5 Z"/></g>
<g><path style="opacity:1" fill="#427264" d="M 100.5,52.5 C 106.609,55.7244 112.609,59.2244 118.5,63C 120.134,63.4935 121.801,63.6602 123.5,63.5C 124.702,65.3925 126.035,67.2258 127.5,69C 129.809,69.7562 131.809,69.2562 133.5,67.5C 134.107,67.6236 134.44,67.9569 134.5,68.5C 134.5,69.5 134.5,70.5 134.5,71.5C 133.5,72.1667 132.5,72.8333 131.5,73.5C 126.912,74.0215 122.912,75.6882 119.5,78.5C 117.497,81.1179 115.497,83.7845 113.5,86.5C 110.111,78.7008 106.944,70.7008 104,62.5C 102.211,60.771 100.044,60.1043 97.5,60.5C 97.5,57.8333 97.5,55.1667 97.5,52.5C 98.5,52.5 99.5,52.5 100.5,52.5 Z"/></g>
<g><path style="opacity:1" fill="#89818b" d="M 70.5,61.5 C 67.4846,63.6744 64.1513,65.3411 60.5,66.5C 60.4606,65.4168 60.1272,64.4168 59.5,63.5C 62.9855,61.9064 66.6521,61.2397 70.5,61.5 Z"/></g>
<g><path style="opacity:1" fill="#f3f3f1" d="M 83.5,63.5 C 81.3284,65.9448 78.6617,67.9448 75.5,69.5C 74.6426,72.4509 74.6426,75.4509 75.5,78.5C 76.1717,82.1883 77.0051,85.8549 78,89.5C 79.0113,90.3366 80.1779,90.67 81.5,90.5C 81.9817,91.4163 82.315,92.4163 82.5,93.5C 80.9741,97.1275 78.3074,98.9609 74.5,99C 73.6006,97.3484 72.6006,95.8484 71.5,94.5C 69.6985,89.0961 67.6985,83.7627 65.5,78.5C 65.1958,75.4208 64.1958,72.5875 62.5,70C 67.5992,67.1167 72.9325,64.7834 78.5,63C 80.265,62.3603 81.9317,62.5269 83.5,63.5 Z"/></g>
<g><path style="opacity:1" fill="#efeeee" d="M 50.5,76.5 C 50.5,77.1667 50.5,77.8333 50.5,78.5C 49.9348,80.42 48.9348,82.0867 47.5,83.5C 46.8333,83.5 46.1667,83.5 45.5,83.5C 45.0931,75.3237 47.2598,67.9904 52,61.5C 52.0952,66.5356 51.5952,71.5356 50.5,76.5 Z"/></g>
<g><path style="opacity:1" fill="#dadad6" d="M 85.5,56.5 C 87.0075,58.1815 88.0075,60.1815 88.5,62.5C 87.791,63.404 86.791,63.7373 85.5,63.5C 85.5,62.5 85.5,61.5 85.5,60.5C 84.448,60.3505 83.448,60.5172 82.5,61C 83.2524,61.6708 83.5858,62.5041 83.5,63.5C 81.9317,62.5269 80.265,62.3603 78.5,63C 72.9325,64.7834 67.5992,67.1167 62.5,70C 64.1958,72.5875 65.1958,75.4208 65.5,78.5C 62.7539,75.0009 61.0873,71.0009 60.5,66.5C 64.1513,65.3411 67.4846,63.6744 70.5,61.5C 75.4379,59.6318 80.4379,57.9651 85.5,56.5 Z"/></g>
<g><path style="opacity:1" fill="#563a35" d="M 146.5,68.5 C 142.603,69.9099 138.603,70.9099 134.5,71.5C 134.5,70.5 134.5,69.5 134.5,68.5C 138.685,68.9827 142.685,68.9827 146.5,68.5 Z"/></g>
<g><path style="opacity:1" fill="#bd2a27" d="M 146.5,68.5 C 147.822,68.33 148.989,68.6634 150,69.5C 152.332,74.3316 154.166,79.3316 155.5,84.5C 155.587,87.5983 155.087,87.9316 154,85.5C 150.884,88.9763 147.051,91.3096 142.5,92.5C 142.213,91.7997 141.88,91.1331 141.5,90.5C 142.6,87.9839 144.267,86.9839 146.5,87.5C 147.833,86.1667 147.833,84.8333 146.5,83.5C 145.376,82.086 144.376,80.586 143.5,79C 141.671,78.7265 140.171,77.8932 139,76.5C 137.53,77.2666 136.03,77.9332 134.5,78.5C 134.047,77.5416 133.381,76.7083 132.5,76C 135.105,75.9736 136.271,74.807 136,72.5C 134.644,73.3802 133.144,73.7135 131.5,73.5C 132.5,72.8333 133.5,72.1667 134.5,71.5C 138.603,70.9099 142.603,69.9099 146.5,68.5 Z"/></g>
<g><path style="opacity:1" fill="#938872" d="M 31.5,70.5 C 33.7267,72.2287 34.7267,74.562 34.5,77.5C 32.3974,81.5949 29.0641,82.5949 24.5,80.5C 25.5676,79.5655 26.901,79.2322 28.5,79.5C 28.7746,74.7797 27.9412,74.4463 26,78.5C 24.6446,76.2263 23.1446,76.2263 21.5,78.5C 21.1667,78.5 20.8333,78.5 20.5,78.5C 20.1667,77.8333 19.8333,77.1667 19.5,76.5C 21.3745,73.4508 24.2078,71.4508 28,70.5C 28.5,70.6667 29,70.8333 29.5,71C 27.9984,71.5831 26.6651,72.4164 25.5,73.5C 26.9667,73.723 28.4667,74.0563 30,74.5C 30.7914,73.255 31.2914,71.9217 31.5,70.5 Z"/></g>
<g><path style="opacity:1" fill="#414a30" d="M 40.5,67.5 C 40.4346,67.9382 40.6012,68.2716 41,68.5C 42,67.5 43,66.5 44,65.5C 44.4995,71.4908 44.6662,77.4908 44.5,83.5C 42.8235,84.1834 42.1568,85.5168 42.5,87.5C 41.5,87.5 40.5,87.5 39.5,87.5C 39.2705,82.9946 39.9372,78.6613 41.5,74.5C 40.0222,74.238 38.6888,74.5713 37.5,75.5C 37.7093,76.086 38.0426,76.586 38.5,77C 37.2068,77.49 35.8734,77.6567 34.5,77.5C 34.7267,74.562 33.7267,72.2287 31.5,70.5C 27.7752,69.04 24.2752,69.7067 21,72.5C 20.2086,73.745 19.7086,75.0783 19.5,76.5C 16.8334,74.8266 14.8334,72.4933 13.5,69.5C 16.2302,68.8115 18.5635,67.4781 20.5,65.5C 25.5079,64.4428 30.5079,64.6095 35.5,66C 37.0488,67.214 38.2155,68.714 39,70.5C 39.2321,69.2625 39.7321,68.2625 40.5,67.5 Z"/></g>
<g><path style="opacity:1" fill="#c2b278" d="M 31.5,70.5 C 31.2914,71.9217 30.7914,73.255 30,74.5C 28.4667,74.0563 26.9667,73.723 25.5,73.5C 26.6651,72.4164 27.9984,71.5831 29.5,71C 29,70.8333 28.5,70.6667 28,70.5C 24.2078,71.4508 21.3745,73.4508 19.5,76.5C 19.7086,75.0783 20.2086,73.745 21,72.5C 24.2752,69.7067 27.7752,69.04 31.5,70.5 Z"/></g>
<g><path style="opacity:1" fill="#aaa8a6" d="M 88.5,62.5 C 89.1667,62.5 89.5,62.8333 89.5,63.5C 85.1853,65.4113 81.0186,67.7447 77,70.5C 76.4436,72.8848 76.6103,75.2181 77.5,77.5C 76.8333,77.8333 76.1667,78.1667 75.5,78.5C 74.6426,75.4509 74.6426,72.4509 75.5,69.5C 78.6617,67.9448 81.3284,65.9448 83.5,63.5C 83.5858,62.5041 83.2524,61.6708 82.5,61C 83.448,60.5172 84.448,60.3505 85.5,60.5C 85.5,61.5 85.5,62.5 85.5,63.5C 86.791,63.7373 87.791,63.404 88.5,62.5 Z"/></g>
<g><path style="opacity:1" fill="#a19f9d" d="M 60.5,66.5 C 61.0873,71.0009 62.7539,75.0009 65.5,78.5C 67.6985,83.7627 69.6985,89.0961 71.5,94.5C 67.3276,86.6915 63.3276,78.6915 59.5,70.5C 59.0431,69.7025 58.3764,69.3691 57.5,69.5C 58.1667,68.1667 59.1667,67.1667 60.5,66.5 Z"/></g>
<g><path style="opacity:1" fill="#383531" d="M 7.5,56.5 C 15.5007,58.8336 23.5007,61.1669 31.5,63.5C 34.8257,64.0986 37.8257,65.432 40.5,67.5C 39.7321,68.2625 39.2321,69.2625 39,70.5C 38.2155,68.714 37.0488,67.214 35.5,66C 30.5079,64.6095 25.5079,64.4428 20.5,65.5C 18.5635,67.4781 16.2302,68.8115 13.5,69.5C 14.8334,72.4933 16.8334,74.8266 19.5,76.5C 19.8333,77.1667 20.1667,77.8333 20.5,78.5C 18.0523,78.0847 16.7189,79.0847 16.5,81.5C 17.6511,83.3254 18.3178,85.3254 18.5,87.5C 22.5983,86.735 26.5983,85.9016 30.5,85C 32.808,87.3838 34.4746,90.2171 35.5,93.5C 36.7638,91.7085 37.4305,89.7085 37.5,87.5C 37.0502,83.9518 36.0502,80.6185 34.5,77.5C 35.8734,77.6567 37.2068,77.49 38.5,77C 38.0426,76.586 37.7093,76.086 37.5,75.5C 38.6888,74.5713 40.0222,74.238 41.5,74.5C 39.9372,78.6613 39.2705,82.9946 39.5,87.5C 40.5,87.5 41.5,87.5 42.5,87.5C 42.1568,85.5168 42.8235,84.1834 44.5,83.5C 44.8333,83.5 45.1667,83.5 45.5,83.5C 46.1667,83.5 46.8333,83.5 47.5,83.5C 47.5,83.8333 47.5,84.1667 47.5,84.5C 43.5357,87.9629 39.7023,91.6295 36,95.5C 35.6174,94.944 35.1174,94.6107 34.5,94.5C 25.0422,90.9034 15.3755,87.9034 5.5,85.5C 2.57121,75.6296 3.23788,65.9629 7.5,56.5 Z"/></g>
<g><path style="opacity:1" fill="#f9f9f9" d="M 159.5,71.5 C 159.833,71.5 160.167,71.5 160.5,71.5C 160.5,101.167 160.5,130.833 160.5,160.5C 106.833,160.5 53.1667,160.5 -0.5,160.5C -0.5,131.167 -0.5,101.833 -0.5,72.5C -0.166667,72.5 0.166667,72.5 0.5,72.5C -0.167067,88.1663 3.33293,102.833 11,116.5C 36.7599,155.086 71.2599,165.92 114.5,149C 145.078,132.359 160.078,106.526 159.5,71.5 Z"/></g>
<g><path style="opacity:1" fill="#8d8994" d="M 141.5,90.5 C 139.5,90.5 137.5,90.5 135.5,90.5C 132.864,90.5088 131.531,89.1755 131.5,86.5C 131.842,84.1332 132.342,81.7999 133,79.5C 133.383,78.944 133.883,78.6107 134.5,78.5C 136.03,77.9332 137.53,77.2666 139,76.5C 140.171,77.8932 141.671,78.7265 143.5,79C 144.376,80.586 145.376,82.086 146.5,83.5C 147.833,84.8333 147.833,86.1667 146.5,87.5C 144.267,86.9839 142.6,87.9839 141.5,90.5 Z"/></g>
<g><path style="opacity:1" fill="#5e2c29" d="M 119.5,78.5 C 120.698,83.2381 122.198,87.9048 124,92.5C 125.371,94.0414 126.871,95.3747 128.5,96.5C 128.833,97.5 129.5,98.1667 130.5,98.5C 131.463,99.3635 131.463,100.03 130.5,100.5C 127.683,98.1833 125.016,95.6833 122.5,93C 120.866,92.5065 119.199,92.3398 117.5,92.5C 117.784,94.4147 117.451,96.0813 116.5,97.5C 116.108,93.6576 115.108,89.9909 113.5,86.5C 115.497,83.7845 117.497,81.1179 119.5,78.5 Z"/></g>
<g><path style="opacity:1" fill="#4b5537" d="M 34.5,77.5 C 36.0502,80.6185 37.0502,83.9518 37.5,87.5C 37.4305,89.7085 36.7638,91.7085 35.5,93.5C 34.4746,90.2171 32.808,87.3838 30.5,85C 26.5983,85.9016 22.5983,86.735 18.5,87.5C 18.3178,85.3254 17.6511,83.3254 16.5,81.5C 16.7189,79.0847 18.0523,78.0847 20.5,78.5C 20.8333,78.5 21.1667,78.5 21.5,78.5C 22.5,79.1667 23.5,79.8333 24.5,80.5C 29.0641,82.5949 32.3974,81.5949 34.5,77.5 Z"/></g>
<g><path style="opacity:1" fill="#b0842c" d="M 143.5,85.5 C 143.265,84.9033 142.765,84.5699 142,84.5C 138.974,85.8718 135.807,86.5385 132.5,86.5C 133.794,84.6716 134.794,82.6716 135.5,80.5C 138.32,80.2475 140.986,80.7475 143.5,82C 144.791,83.2917 144.791,84.4583 143.5,85.5 Z"/></g>
<g><path style="opacity:1" fill="#c4ae65" d="M 24.5,80.5 C 23.5,79.8333 22.5,79.1667 21.5,78.5C 23.1446,76.2263 24.6446,76.2263 26,78.5C 27.9412,74.4463 28.7746,74.7797 28.5,79.5C 26.901,79.2322 25.5676,79.5655 24.5,80.5 Z"/></g>
<g><path style="opacity:1" fill="#cc2a27" d="M 134.5,78.5 C 133.883,78.6107 133.383,78.944 133,79.5C 132.342,81.7999 131.842,84.1332 131.5,86.5C 131.531,89.1755 132.864,90.5088 135.5,90.5C 136.718,91.1614 138.051,91.8281 139.5,92.5C 135.663,93.4448 131.996,94.7782 128.5,96.5C 126.871,95.3747 125.371,94.0414 124,92.5C 122.198,87.9048 120.698,83.2381 119.5,78.5C 122.912,75.6882 126.912,74.0215 131.5,73.5C 133.144,73.7135 134.644,73.3802 136,72.5C 136.271,74.807 135.105,75.9736 132.5,76C 133.381,76.7083 134.047,77.5416 134.5,78.5 Z"/></g>
<g><path style="opacity:1" fill="#f3f3f3" d="M 5.5,85.5 C 15.3755,87.9034 25.0422,90.9034 34.5,94.5C 29.5968,100.909 24.0968,106.909 18,112.5C 17.0132,116.695 18.5132,119.695 22.5,121.5C 24.4611,123.963 26.6278,126.297 29,128.5C 29.5847,129.998 29.0847,130.998 27.5,131.5C 13.6287,119.097 6.29532,103.764 5.5,85.5 Z"/></g>
<g><path style="opacity:1" fill="#e9c928" d="M 143.5,85.5 C 142.308,87.9223 140.308,88.9223 137.5,88.5C 136.167,88.3333 134.833,88.1667 133.5,88C 132.944,87.6174 132.611,87.1174 132.5,86.5C 135.807,86.5385 138.974,85.8718 142,84.5C 142.765,84.5699 143.265,84.9033 143.5,85.5 Z"/></g>
<g><path style="opacity:1" fill="#4c3d40" d="M 56.5,83.5 C 57.8149,84.4756 59.1482,85.4756 60.5,86.5C 61.5223,86.1445 62.189,85.4778 62.5,84.5C 64.5918,87.0884 65.9251,90.0884 66.5,93.5C 63.9974,91.1673 61.3307,89.0007 58.5,87C 57.1772,86.1841 56.5106,85.0174 56.5,83.5 Z"/></g>
<g><path style="opacity:1" fill="#4c6137" d="M 26.5,86.5 C 30.0289,85.8894 31.8622,87.2227 32,90.5C 30.2302,91.2764 28.3969,91.1097 26.5,90C 25.3157,88.8545 25.3157,87.6879 26.5,86.5 Z"/></g>
<g><path style="opacity:1" fill="#a72826" d="M 155.5,84.5 C 155.833,84.5 156.167,84.5 156.5,84.5C 156.646,88.9207 155.312,92.5874 152.5,95.5C 151.833,95.5 151.167,95.5 150.5,95.5C 149.305,95.3225 148.138,94.9891 147,94.5C 141.416,95.7244 135.916,97.0577 130.5,98.5C 129.5,98.1667 128.833,97.5 128.5,96.5C 131.996,94.7782 135.663,93.4448 139.5,92.5C 138.051,91.8281 136.718,91.1614 135.5,90.5C 137.5,90.5 139.5,90.5 141.5,90.5C 141.88,91.1331 142.213,91.7997 142.5,92.5C 147.051,91.3096 150.884,88.9763 154,85.5C 155.087,87.9316 155.587,87.5983 155.5,84.5 Z"/></g>
<g><path style="opacity:1" fill="#edeeef" d="M 150.5,95.5 C 151.167,95.5 151.833,95.5 152.5,95.5C 153.376,95.3691 154.043,95.7025 154.5,96.5C 152.547,102.033 150.214,107.367 147.5,112.5C 147.043,113.298 146.376,113.631 145.5,113.5C 142.037,109.536 138.37,105.702 134.5,102C 140.009,100.112 145.342,97.9455 150.5,95.5 Z"/></g>
<g><path style="opacity:1" fill="#dddcd9" d="M 97.5,60.5 C 100.044,60.1043 102.211,60.771 104,62.5C 106.944,70.7008 110.111,78.7008 113.5,86.5C 115.108,89.9909 116.108,93.6576 116.5,97.5C 113.261,98.4617 110.261,99.7951 107.5,101.5C 102.183,103.49 96.8495,105.49 91.5,107.5C 88.7013,106.189 87.368,103.855 87.5,100.5C 83.0527,101.891 78.7194,103.558 74.5,105.5C 71.9171,104.373 70.2504,102.373 69.5,99.5C 69.0075,97.1815 68.0075,95.1815 66.5,93.5C 65.9251,90.0884 64.5918,87.0884 62.5,84.5C 60.5467,79.5939 58.88,74.5939 57.5,69.5C 58.3764,69.3691 59.0431,69.7025 59.5,70.5C 63.3276,78.6915 67.3276,86.6915 71.5,94.5C 72.6006,95.8484 73.6006,97.3484 74.5,99C 78.3074,98.9609 80.9741,97.1275 82.5,93.5C 82.315,92.4163 81.9817,91.4163 81.5,90.5C 80.9697,85.9097 79.6363,81.5763 77.5,77.5C 76.6103,75.2181 76.4436,72.8848 77,70.5C 81.0186,67.7447 85.1853,65.4113 89.5,63.5C 92.3973,62.871 95.064,61.871 97.5,60.5 Z"/></g>
<g><path style="opacity:1" fill="#615f5e" d="M 77.5,77.5 C 79.6363,81.5763 80.9697,85.9097 81.5,90.5C 80.1779,90.67 79.0113,90.3366 78,89.5C 77.0051,85.8549 76.1717,82.1883 75.5,78.5C 76.1667,78.1667 76.8333,77.8333 77.5,77.5 Z"/></g>
<g><path style="opacity:1" fill="#f1f1ee" d="M 92.5,87.5 C 98.4964,88.6673 100.996,86.3339 100,80.5C 96.2741,77.7993 92.7741,78.1326 89.5,81.5C 90.1272,82.4168 90.4606,83.4168 90.5,84.5C 89.7377,86.2624 88.4044,87.2624 86.5,87.5C 85.0318,81.7632 83.3651,76.0966 81.5,70.5C 87.4267,68.8021 93.2601,66.8021 99,64.5C 103.372,73.9171 107.205,83.5837 110.5,93.5C 108.209,96.3206 105.209,98.1539 101.5,99C 98.1832,99.4983 94.8499,99.665 91.5,99.5C 91.051,96.359 90.051,93.359 88.5,90.5C 89.8518,89.4756 91.1851,88.4756 92.5,87.5 Z"/></g>
<g><path style="opacity:1" fill="#9b998d" d="M 92.5,87.5 C 91.8902,86.609 91.5569,85.609 91.5,84.5C 91.1667,84.5 90.8333,84.5 90.5,84.5C 90.4606,83.4168 90.1272,82.4168 89.5,81.5C 92.7741,78.1326 96.2741,77.7993 100,80.5C 100.996,86.3339 98.4964,88.6673 92.5,87.5 Z"/></g>
<g><path style="opacity:1" fill="#dbbb40" d="M 91.5,84.5 C 93.0895,80.5486 95.7561,79.7152 99.5,82C 98.6634,83.0113 98.33,84.1779 98.5,85.5C 97.0695,85.4208 95.7362,85.7542 94.5,86.5C 93.4822,85.8075 92.4822,85.1408 91.5,84.5 Z"/></g>
<g><path style="opacity:1" fill="#a3a09d" d="M 86.5,87.5 C 87.9307,93.0315 89.9307,98.3648 92.5,103.5C 92.1667,103.833 91.8333,104.167 91.5,104.5C 87.5472,96.8032 84.7139,88.8032 83,80.5C 83.8984,83.0691 85.065,85.4024 86.5,87.5 Z"/></g>
<g><path style="opacity:1" fill="#435f38" d="M 47.5,100.5 C 47.1667,100.5 46.8333,100.5 46.5,100.5C 46.1667,100.5 45.8333,100.5 45.5,100.5C 41.6714,99.1575 38.8381,100.491 37,104.5C 36.3333,107.167 36.3333,109.833 37,112.5C 38.7889,114.229 40.9556,114.896 43.5,114.5C 43.9175,115.222 44.5842,115.722 45.5,116C 42.823,119.009 39.823,121.676 36.5,124C 37.5762,125.726 37.7429,127.559 37,129.5C 36.5831,130.756 35.7498,131.423 34.5,131.5C 30.7728,127.767 26.7728,124.434 22.5,121.5C 18.5132,119.695 17.0132,116.695 18,112.5C 24.0968,106.909 29.5968,100.909 34.5,94.5C 35.1174,94.6107 35.6174,94.944 36,95.5C 39.7023,91.6295 43.5357,87.9629 47.5,84.5C 50.3237,83.0888 52.9904,83.2555 55.5,85C 52.3615,86.455 49.5281,88.6217 47,91.5C 46.2642,94.592 46.4309,97.592 47.5,100.5 Z"/></g>
<g><path style="opacity:1" fill="#91894a" d="M 45.5,100.5 C 45.8333,100.5 46.1667,100.5 46.5,100.5C 46.5569,101.609 46.8902,102.609 47.5,103.5C 44.5179,106.045 41.8513,109.045 39.5,112.5C 36.7852,105.93 38.7852,101.93 45.5,100.5 Z"/></g>
<g><path style="opacity:1" fill="#b0a627" d="M 46.5,100.5 C 46.8333,100.5 47.1667,100.5 47.5,100.5C 47.8333,100.5 48.1667,100.5 48.5,100.5C 49.038,102.117 49.3713,103.784 49.5,105.5C 48.5,105.167 47.8333,104.5 47.5,103.5C 46.8902,102.609 46.5569,101.609 46.5,100.5 Z"/></g>
<g><path style="opacity:1" fill="#4c4337" d="M 69.5,99.5 C 70.2504,102.373 71.9171,104.373 74.5,105.5C 78.7194,103.558 83.0527,101.891 87.5,100.5C 87.368,103.855 88.7013,106.189 91.5,107.5C 96.8495,105.49 102.183,103.49 107.5,101.5C 107.013,102.473 106.513,103.473 106,104.5C 104.701,104.034 103.201,104.034 101.5,104.5C 101.67,105.822 101.337,106.989 100.5,108C 103.365,108.183 106.031,108.683 108.5,109.5C 100.16,109.334 91.8267,109.5 83.5,110C 82.4178,111.33 81.7512,112.83 81.5,114.5C 76.2844,111.066 71.2844,107.399 66.5,103.5C 67.9779,102.552 68.9779,101.219 69.5,99.5 Z"/></g>
<g><path style="opacity:1" fill="#812e2b" d="M 130.5,98.5 C 135.916,97.0577 141.416,95.7244 147,94.5C 148.138,94.9891 149.305,95.3225 150.5,95.5C 145.342,97.9455 140.009,100.112 134.5,102C 138.37,105.702 142.037,109.536 145.5,113.5C 145.611,114.117 145.944,114.617 146.5,115C 141.623,122.883 135.623,129.883 128.5,136C 126.711,136.52 125.044,136.187 123.5,135C 119.646,131.911 115.646,129.078 111.5,126.5C 112.117,120.402 111.45,114.735 109.5,109.5C 109.167,109.5 108.833,109.5 108.5,109.5C 106.031,108.683 103.365,108.183 100.5,108C 101.337,106.989 101.67,105.822 101.5,104.5C 103.201,104.034 104.701,104.034 106,104.5C 106.513,103.473 107.013,102.473 107.5,101.5C 110.261,99.7951 113.261,98.4617 116.5,97.5C 117.451,96.0813 117.784,94.4147 117.5,92.5C 119.199,92.3398 120.866,92.5065 122.5,93C 125.016,95.6833 127.683,98.1833 130.5,100.5C 131.463,100.03 131.463,99.3635 130.5,98.5 Z"/></g>
<g><path style="opacity:1" fill="#404f38" d="M 50.5,78.5 C 50.5,79.5 50.5,80.5 50.5,81.5C 52.8583,81.2525 54.8583,81.9192 56.5,83.5C 56.5106,85.0174 57.1772,86.1841 58.5,87C 61.3307,89.0007 63.9974,91.1673 66.5,93.5C 68.0075,95.1815 69.0075,97.1815 69.5,99.5C 68.9779,101.219 67.9779,102.552 66.5,103.5C 63.6755,103.081 61.5088,104.081 60,106.5C 56.241,111.691 52.741,117.024 49.5,122.5C 45.3638,123.983 43.0304,126.983 42.5,131.5C 41.6586,133.379 41.3253,135.379 41.5,137.5C 40.4749,136.626 39.8082,135.459 39.5,134C 40.6151,132.607 41.1151,131.107 41,129.5C 39.3333,131.167 37.6667,132.833 36,134.5C 35.4867,133.473 34.9867,132.473 34.5,131.5C 35.7498,131.423 36.5831,130.756 37,129.5C 37.7429,127.559 37.5762,125.726 36.5,124C 39.823,121.676 42.823,119.009 45.5,116C 44.5842,115.722 43.9175,115.222 43.5,114.5C 45.2624,113.738 46.2624,112.404 46.5,110.5C 48.7012,110.142 50.0345,108.808 50.5,106.5C 50.3764,105.893 50.0431,105.56 49.5,105.5C 49.3713,103.784 49.038,102.117 48.5,100.5C 48.1667,100.5 47.8333,100.5 47.5,100.5C 46.4309,97.592 46.2642,94.592 47,91.5C 49.5281,88.6217 52.3615,86.455 55.5,85C 52.9904,83.2555 50.3237,83.0888 47.5,84.5C 47.5,84.1667 47.5,83.8333 47.5,83.5C 48.9348,82.0867 49.9348,80.42 50.5,78.5 Z"/></g>
<g><path style="opacity:1" fill="#b09a49" d="M 54.5,97.5 C 55.8333,97.5 57.1667,97.5 58.5,97.5C 58.2155,99.4147 58.5489,101.081 59.5,102.5C 59.5,104.5 58.5,105.5 56.5,105.5C 55.8333,103.833 55.1667,102.167 54.5,100.5C 54.5,99.5 54.5,98.5 54.5,97.5 Z"/></g>
<g><path style="opacity:1" fill="#a59a88" d="M 48.5,93.5 C 48.3894,95.6477 49.056,95.981 50.5,94.5C 53.0278,95.4978 53.0278,96.3311 50.5,97C 51.7051,98.3756 53.0384,99.5423 54.5,100.5C 55.1667,102.167 55.8333,103.833 56.5,105.5C 53.3189,104.651 50.6523,102.985 48.5,100.5C 47.3773,98.0213 47.3773,95.688 48.5,93.5 Z"/></g>
<g><path style="opacity:1" fill="#ddbf24" d="M 48.5,92.5 C 51.6905,92.6871 53.6905,94.3538 54.5,97.5C 54.5,98.5 54.5,99.5 54.5,100.5C 53.0384,99.5423 51.7051,98.3756 50.5,97C 53.0278,96.3311 53.0278,95.4978 50.5,94.5C 49.056,95.981 48.3894,95.6477 48.5,93.5C 48.5,93.1667 48.5,92.8333 48.5,92.5 Z"/></g>
<g><path style="opacity:1" fill="#a79d8e" d="M 48.5,92.5 C 51.9141,90.664 54.2474,91.664 55.5,95.5C 59.7479,96.3379 61.0813,98.6712 59.5,102.5C 58.5489,101.081 58.2155,99.4147 58.5,97.5C 57.1667,97.5 55.8333,97.5 54.5,97.5C 53.6905,94.3538 51.6905,92.6871 48.5,92.5 Z"/></g>
<g><path style="opacity:1" fill="#e9d45a" d="M 116.5,106.5 C 117.5,106.5 118.5,106.5 119.5,106.5C 119.5,107.5 119.5,108.5 119.5,109.5C 117.708,109.366 116.042,109.699 114.5,110.5C 115.167,109.167 115.833,107.833 116.5,106.5 Z"/></g>
<g><path style="opacity:1" fill="#857f83" d="M 124.5,107.5 C 125.594,108.582 126.927,109.248 128.5,109.5C 130.673,108.418 132.673,108.418 134.5,109.5C 132.688,109.771 131.022,110.438 129.5,111.5C 130.09,112.799 131.09,113.632 132.5,114C 131.177,114.816 130.511,115.983 130.5,117.5C 128.837,114.948 127.17,115.114 125.5,118C 126.823,118.816 127.489,119.983 127.5,121.5C 127.5,121.833 127.5,122.167 127.5,122.5C 127.167,122.5 126.833,122.5 126.5,122.5C 124.461,121.328 123.128,119.662 122.5,117.5C 121.508,117.672 120.842,117.338 120.5,116.5C 121.167,114.833 121.833,113.167 122.5,111.5C 122.5,112.833 122.5,114.167 122.5,115.5C 123.5,115.5 124.5,115.5 125.5,115.5C 125.975,112.918 125.308,110.918 123.5,109.5C 123.833,108.833 124.167,108.167 124.5,107.5 Z"/></g>
<g><path style="opacity:1" fill="#d2ccc4" d="M 116.5,106.5 C 119.299,105.074 121.966,105.408 124.5,107.5C 124.167,108.167 123.833,108.833 123.5,109.5C 122.662,109.842 122.328,110.508 122.5,111.5C 121.833,113.167 121.167,114.833 120.5,116.5C 119.833,116.5 119.5,116.167 119.5,115.5C 119.649,114.448 119.483,113.448 119,112.5C 117.989,113.337 116.822,113.67 115.5,113.5C 114.89,112.609 114.557,111.609 114.5,110.5C 116.042,109.699 117.708,109.366 119.5,109.5C 119.5,108.5 119.5,107.5 119.5,106.5C 118.5,106.5 117.5,106.5 116.5,106.5 Z"/></g>
<g><path style="opacity:1" fill="#9a9687" d="M 45.5,100.5 C 38.7852,101.93 36.7852,105.93 39.5,112.5C 41.8513,109.045 44.5179,106.045 47.5,103.5C 47.8333,104.5 48.5,105.167 49.5,105.5C 50.0431,105.56 50.3764,105.893 50.5,106.5C 50.0345,108.808 48.7012,110.142 46.5,110.5C 46.2624,112.404 45.2624,113.738 43.5,114.5C 40.9556,114.896 38.7889,114.229 37,112.5C 36.3333,109.833 36.3333,107.167 37,104.5C 38.8381,100.491 41.6714,99.1575 45.5,100.5 Z"/></g>
<g><path style="opacity:1" fill="#e7d31a" d="M 46.5,110.5 C 44.663,110.361 44.3296,109.694 45.5,108.5C 46.2975,108.957 46.6309,109.624 46.5,110.5 Z"/></g>
<g><path style="opacity:1" fill="#e5c837" d="M 123.5,109.5 C 125.308,110.918 125.975,112.918 125.5,115.5C 124.5,115.5 123.5,115.5 122.5,115.5C 122.5,114.167 122.5,112.833 122.5,111.5C 122.328,110.508 122.662,109.842 123.5,109.5 Z"/></g>
<g><path style="opacity:1" fill="#ceb270" d="M 134.5,109.5 C 134.586,110.496 134.252,111.329 133.5,112C 134.756,112.417 135.423,113.25 135.5,114.5C 133.589,115.075 131.922,116.075 130.5,117.5C 130.511,115.983 131.177,114.816 132.5,114C 131.09,113.632 130.09,112.799 129.5,111.5C 131.022,110.438 132.688,109.771 134.5,109.5 Z"/></g>
<g><path style="opacity:1" fill="#dabe65" d="M 119.5,115.5 C 117.517,115.843 116.183,115.176 115.5,113.5C 116.822,113.67 117.989,113.337 119,112.5C 119.483,113.448 119.649,114.448 119.5,115.5 Z"/></g>
<g><path style="opacity:1" fill="#baa64d" d="M 136.5,117.5 C 135.596,116.791 135.263,115.791 135.5,114.5C 137.783,113.924 138.117,114.924 136.5,117.5 Z"/></g>
<g><path style="opacity:1" fill="#7c6a69" d="M 135.5,114.5 C 135.263,115.791 135.596,116.791 136.5,117.5C 136.5,118.833 135.833,119.5 134.5,119.5C 134.631,118.761 134.464,118.094 134,117.5C 133.5,118.5 133,119.5 132.5,120.5C 131.386,121.776 130.386,121.776 129.5,120.5C 130.11,119.609 130.443,118.609 130.5,117.5C 131.922,116.075 133.589,115.075 135.5,114.5 Z"/></g>
<g><path style="opacity:1" fill="#9a8458" d="M 130.5,117.5 C 130.443,118.609 130.11,119.609 129.5,120.5C 128.833,120.833 128.167,121.167 127.5,121.5C 127.489,119.983 126.823,118.816 125.5,118C 127.17,115.114 128.837,114.948 130.5,117.5 Z"/></g>
<g><path style="opacity:1" fill="#caa42e" d="M 122.5,117.5 C 123.128,119.662 124.461,121.328 126.5,122.5C 125.207,123.645 124.041,123.311 123,121.5C 122.51,120.207 122.343,118.873 122.5,117.5 Z"/></g>
<g><path style="opacity:1" fill="#c8af4e" d="M 134.5,119.5 C 133.273,123.334 130.94,124.334 127.5,122.5C 127.5,122.167 127.5,121.833 127.5,121.5C 128.167,121.167 128.833,120.833 129.5,120.5C 130.386,121.776 131.386,121.776 132.5,120.5C 133,119.5 133.5,118.5 134,117.5C 134.464,118.094 134.631,118.761 134.5,119.5 Z"/></g>
<g><path style="opacity:1" fill="#898785" d="M 49.5,122.5 C 47.5179,125.81 45.1846,128.81 42.5,131.5C 43.0304,126.983 45.3638,123.983 49.5,122.5 Z"/></g>
<g><path style="opacity:1" fill="#497085" d="M 108.5,109.5 C 108.833,109.5 109.167,109.5 109.5,109.5C 109.5,122.167 109.5,134.833 109.5,147.5C 101.167,148.833 92.8333,148.833 84.5,147.5C 84.8254,139.648 84.492,131.982 83.5,124.5C 84.2371,122.695 85.2371,121.029 86.5,119.5C 85.1455,117.479 83.4788,115.812 81.5,114.5C 81.7512,112.83 82.4178,111.33 83.5,110C 91.8267,109.5 100.16,109.334 108.5,109.5 Z"/></g>
<g><path style="opacity:1" fill="#41475e" d="M 99.5,115.5 C 100.811,117.336 101.978,119.336 103,121.5C 103.77,122.598 104.603,122.598 105.5,121.5C 104.278,125.165 104.278,128.831 105.5,132.5C 104.789,139.383 101.122,142.883 94.5,143C 89.5322,139.292 87.8656,134.459 89.5,128.5C 88.8333,127.167 88.1667,125.833 87.5,124.5C 89.0547,122.402 90.3881,120.069 91.5,117.5C 94.1444,116.705 96.8111,116.038 99.5,115.5 Z"/></g>
<g><path style="opacity:1" fill="#96834a" d="M 96.5,123.5 C 98.3716,124.511 100.372,125.345 102.5,126C 103.982,128.592 103.648,130.925 101.5,133C 99.2199,133.233 97.2199,134.066 95.5,135.5C 94.0295,134.619 93.1962,133.286 93,131.5C 92.586,131.957 92.086,132.291 91.5,132.5C 90.2061,129.535 90.7061,126.868 93,124.5C 95.1777,127.468 96.3444,127.135 96.5,123.5 Z"/></g>
<g><path style="opacity:1" fill="#8a552c" d="M 105.5,121.5 C 104.603,122.598 103.77,122.598 103,121.5C 101.978,119.336 100.811,117.336 99.5,115.5C 102.112,114.629 104.779,113.963 107.5,113.5C 107.44,116.341 106.774,119.007 105.5,121.5 Z"/></g>
<g><path style="opacity:1" fill="#453d2b" d="M 22.5,121.5 C 26.7728,124.434 30.7728,127.767 34.5,131.5C 34.9867,132.473 35.4867,133.473 36,134.5C 37.6667,132.833 39.3333,131.167 41,129.5C 41.1151,131.107 40.6151,132.607 39.5,134C 39.8082,135.459 40.4749,136.626 41.5,137.5C 47.9652,142.238 54.6319,146.738 61.5,151C 63.1667,151.667 64.8333,151.667 66.5,151C 71.7328,142.683 77.0661,134.516 82.5,126.5C 82.5,133.5 82.5,140.5 82.5,147.5C 82.6107,148.117 82.944,148.617 83.5,149C 87.8206,149.499 92.1539,149.666 96.5,149.5C 96.5,151.167 96.5,152.833 96.5,154.5C 85.8112,155.964 75.1445,155.797 64.5,154C 55.9188,150.394 47.5855,146.394 39.5,142C 35.3068,138.635 31.3068,135.135 27.5,131.5C 29.0847,130.998 29.5847,129.998 29,128.5C 26.6278,126.297 24.4611,123.963 22.5,121.5 Z"/></g>
<g><path style="opacity:1" fill="#e1e0dd" d="M 66.5,103.5 C 71.2844,107.399 76.2844,111.066 81.5,114.5C 83.4788,115.812 85.1455,117.479 86.5,119.5C 85.2371,121.029 84.2371,122.695 83.5,124.5C 83.1667,125.167 82.8333,125.833 82.5,126.5C 77.0661,134.516 71.7328,142.683 66.5,151C 64.8333,151.667 63.1667,151.667 61.5,151C 54.6319,146.738 47.9652,142.238 41.5,137.5C 41.3253,135.379 41.6586,133.379 42.5,131.5C 45.1846,128.81 47.5179,125.81 49.5,122.5C 52.741,117.024 56.241,111.691 60,106.5C 61.5088,104.081 63.6755,103.081 66.5,103.5 Z"/></g>
<g><path style="opacity:1" fill="#f1f2f0" d="M 73.5,133.5 C 70.3449,137.796 67.1783,142.13 64,146.5C 58.5103,143.015 53.0103,139.515 47.5,136C 46.5494,135.282 46.3828,134.449 47,133.5C 51.1419,128.537 54.6419,123.204 57.5,117.5C 59.2225,115.747 60.7225,113.747 62,111.5C 62.7247,110.941 63.5581,110.608 64.5,110.5C 68.6091,112.766 72.6091,115.266 76.5,118C 77.5742,118.739 78.2409,119.739 78.5,121C 77.2054,125.376 75.5388,129.543 73.5,133.5 Z"/></g>
<g><path style="opacity:1" fill="#a7abb2" d="M 61.5,123.5 C 68.539,122.247 70.2057,124.914 66.5,131.5C 64.0165,132.861 61.6832,132.694 59.5,131C 60.2524,130.329 60.5858,129.496 60.5,128.5C 63.5336,131.435 65.8669,130.935 67.5,127C 66.5715,124.091 64.5715,122.925 61.5,123.5 Z"/></g>
<g><path style="opacity:1" fill="#cdaa24" d="M 61.5,123.5 C 64.5715,122.925 66.5715,124.091 67.5,127C 65.8669,130.935 63.5336,131.435 60.5,128.5C 60.366,126.708 60.6993,125.042 61.5,123.5 Z"/></g>
<g><path style="opacity:1" fill="#8d8583" d="M 62.5,125.5 C 64.337,125.639 64.6704,126.306 63.5,127.5C 62.7025,127.043 62.3691,126.376 62.5,125.5 Z"/></g>
<g><path style="opacity:1" fill="#43496f" d="M 83.5,124.5 C 84.492,131.982 84.8254,139.648 84.5,147.5C 83.8333,147.5 83.1667,147.5 82.5,147.5C 82.5,140.5 82.5,133.5 82.5,126.5C 82.8333,125.833 83.1667,125.167 83.5,124.5 Z"/></g>
<g><path style="opacity:1" fill="#abaaa7" d="M 57.5,117.5 C 54.6419,123.204 51.1419,128.537 47,133.5C 46.3828,134.449 46.5494,135.282 47.5,136C 53.0103,139.515 58.5103,143.015 64,146.5C 67.1783,142.13 70.3449,137.796 73.5,133.5C 71.2627,138.978 68.2627,143.978 64.5,148.5C 57.6606,144.248 50.9939,139.748 44.5,135C 48.4886,128.831 52.822,122.998 57.5,117.5 Z"/></g>
<g><path style="opacity:1" fill="#463f5d" d="M 109.5,109.5 C 111.45,114.735 112.117,120.402 111.5,126.5C 112.128,133.913 111.461,140.913 109.5,147.5C 109.5,134.833 109.5,122.167 109.5,109.5 Z"/></g>
</svg>
